<mxfile host="app.diagrams.net" modified="2021-04-28T20:02:43.818Z" agent="5.0 (Windows NT 10.0; Win64; x64) AppleWebKit/537.36 (KHTML, like Gecko) Chrome/89.0.4389.105 YaBrowser/21.3.2.193 Yowser/2.5 Safari/537.36" etag="GoUhkyETm31KSikQGb6I" version="14.6.6" type="github">
  <diagram id="7IN7_PlSW28AXNlR6KYo" name="Page-1">
    <mxGraphModel dx="1616" dy="900" grid="1" gridSize="10" guides="1" tooltips="1" connect="1" arrows="1" fold="1" page="1" pageScale="1" pageWidth="827" pageHeight="1169" math="0" shadow="0">
      <root>
        <mxCell id="0" />
        <mxCell id="1" parent="0" />
        <mxCell id="6O5snESh_WPviviqWZDd-10" value="" style="edgeStyle=orthogonalEdgeStyle;rounded=0;orthogonalLoop=1;jettySize=auto;html=1;" edge="1" parent="1" source="6O5snESh_WPviviqWZDd-1" target="6O5snESh_WPviviqWZDd-4">
          <mxGeometry relative="1" as="geometry" />
        </mxCell>
        <mxCell id="6O5snESh_WPviviqWZDd-1" value="НАЧАЛО" style="ellipse;whiteSpace=wrap;html=1;" vertex="1" parent="1">
          <mxGeometry x="180" y="60" width="120" height="60" as="geometry" />
        </mxCell>
        <mxCell id="6O5snESh_WPviviqWZDd-12" value="" style="edgeStyle=orthogonalEdgeStyle;rounded=0;orthogonalLoop=1;jettySize=auto;html=1;" edge="1" parent="1" source="6O5snESh_WPviviqWZDd-2" target="6O5snESh_WPviviqWZDd-3">
          <mxGeometry relative="1" as="geometry" />
        </mxCell>
        <mxCell id="6O5snESh_WPviviqWZDd-2" value="Ввод result = 1, current = 1" style="shape=parallelogram;perimeter=parallelogramPerimeter;whiteSpace=wrap;html=1;fixedSize=1;" vertex="1" parent="1">
          <mxGeometry x="180" y="220" width="120" height="60" as="geometry" />
        </mxCell>
        <mxCell id="6O5snESh_WPviviqWZDd-13" value="" style="edgeStyle=orthogonalEdgeStyle;rounded=0;orthogonalLoop=1;jettySize=auto;html=1;" edge="1" parent="1" source="6O5snESh_WPviviqWZDd-3" target="6O5snESh_WPviviqWZDd-5">
          <mxGeometry relative="1" as="geometry" />
        </mxCell>
        <mxCell id="6O5snESh_WPviviqWZDd-23" style="edgeStyle=orthogonalEdgeStyle;rounded=0;orthogonalLoop=1;jettySize=auto;html=1;exitX=1;exitY=0.5;exitDx=0;exitDy=0;entryX=0.5;entryY=0;entryDx=0;entryDy=0;" edge="1" parent="1" source="6O5snESh_WPviviqWZDd-3" target="6O5snESh_WPviviqWZDd-21">
          <mxGeometry relative="1" as="geometry" />
        </mxCell>
        <mxCell id="6O5snESh_WPviviqWZDd-3" value="i, 0, n" style="shape=hexagon;perimeter=hexagonPerimeter2;whiteSpace=wrap;html=1;fixedSize=1;" vertex="1" parent="1">
          <mxGeometry x="180" y="310" width="120" height="80" as="geometry" />
        </mxCell>
        <mxCell id="6O5snESh_WPviviqWZDd-11" value="" style="edgeStyle=orthogonalEdgeStyle;rounded=0;orthogonalLoop=1;jettySize=auto;html=1;" edge="1" parent="1" source="6O5snESh_WPviviqWZDd-4" target="6O5snESh_WPviviqWZDd-2">
          <mxGeometry relative="1" as="geometry" />
        </mxCell>
        <mxCell id="6O5snESh_WPviviqWZDd-4" value="Ввод n" style="shape=parallelogram;perimeter=parallelogramPerimeter;whiteSpace=wrap;html=1;fixedSize=1;" vertex="1" parent="1">
          <mxGeometry x="180" y="140" width="120" height="60" as="geometry" />
        </mxCell>
        <mxCell id="6O5snESh_WPviviqWZDd-15" style="edgeStyle=orthogonalEdgeStyle;rounded=0;orthogonalLoop=1;jettySize=auto;html=1;exitX=1;exitY=0.5;exitDx=0;exitDy=0;entryX=0.5;entryY=0;entryDx=0;entryDy=0;" edge="1" parent="1" source="6O5snESh_WPviviqWZDd-5" target="6O5snESh_WPviviqWZDd-6">
          <mxGeometry relative="1" as="geometry" />
        </mxCell>
        <mxCell id="6O5snESh_WPviviqWZDd-16" style="edgeStyle=orthogonalEdgeStyle;rounded=0;orthogonalLoop=1;jettySize=auto;html=1;exitX=0;exitY=0.5;exitDx=0;exitDy=0;entryX=0.5;entryY=0;entryDx=0;entryDy=0;" edge="1" parent="1" source="6O5snESh_WPviviqWZDd-5" target="6O5snESh_WPviviqWZDd-7">
          <mxGeometry relative="1" as="geometry" />
        </mxCell>
        <mxCell id="6O5snESh_WPviviqWZDd-5" value="i чётное?" style="rhombus;whiteSpace=wrap;html=1;" vertex="1" parent="1">
          <mxGeometry x="200" y="420" width="80" height="80" as="geometry" />
        </mxCell>
        <mxCell id="6O5snESh_WPviviqWZDd-18" style="edgeStyle=orthogonalEdgeStyle;rounded=0;orthogonalLoop=1;jettySize=auto;html=1;exitX=0.5;exitY=1;exitDx=0;exitDy=0;" edge="1" parent="1" source="6O5snESh_WPviviqWZDd-6">
          <mxGeometry relative="1" as="geometry">
            <mxPoint x="230" y="610" as="targetPoint" />
          </mxGeometry>
        </mxCell>
        <mxCell id="6O5snESh_WPviviqWZDd-6" value="k = 1" style="rounded=0;whiteSpace=wrap;html=1;" vertex="1" parent="1">
          <mxGeometry x="290" y="500" width="120" height="60" as="geometry" />
        </mxCell>
        <mxCell id="6O5snESh_WPviviqWZDd-17" style="edgeStyle=orthogonalEdgeStyle;rounded=0;orthogonalLoop=1;jettySize=auto;html=1;exitX=0.5;exitY=1;exitDx=0;exitDy=0;entryX=0.5;entryY=0;entryDx=0;entryDy=0;" edge="1" parent="1" source="6O5snESh_WPviviqWZDd-7" target="6O5snESh_WPviviqWZDd-8">
          <mxGeometry relative="1" as="geometry" />
        </mxCell>
        <mxCell id="6O5snESh_WPviviqWZDd-7" value="k = -1" style="rounded=0;whiteSpace=wrap;html=1;" vertex="1" parent="1">
          <mxGeometry x="40" y="500" width="120" height="60" as="geometry" />
        </mxCell>
        <mxCell id="6O5snESh_WPviviqWZDd-19" value="" style="edgeStyle=orthogonalEdgeStyle;rounded=0;orthogonalLoop=1;jettySize=auto;html=1;" edge="1" parent="1" source="6O5snESh_WPviviqWZDd-8" target="6O5snESh_WPviviqWZDd-9">
          <mxGeometry relative="1" as="geometry" />
        </mxCell>
        <mxCell id="6O5snESh_WPviviqWZDd-8" value="current = current * k / 2" style="whiteSpace=wrap;html=1;" vertex="1" parent="1">
          <mxGeometry x="150" y="610" width="160" height="60" as="geometry" />
        </mxCell>
        <mxCell id="6O5snESh_WPviviqWZDd-20" style="edgeStyle=orthogonalEdgeStyle;rounded=0;orthogonalLoop=1;jettySize=auto;html=1;exitX=0.5;exitY=1;exitDx=0;exitDy=0;entryX=0;entryY=0.5;entryDx=0;entryDy=0;" edge="1" parent="1" source="6O5snESh_WPviviqWZDd-9" target="6O5snESh_WPviviqWZDd-3">
          <mxGeometry relative="1" as="geometry">
            <Array as="points">
              <mxPoint x="230" y="790" />
              <mxPoint x="10" y="790" />
              <mxPoint x="10" y="350" />
            </Array>
          </mxGeometry>
        </mxCell>
        <mxCell id="6O5snESh_WPviviqWZDd-9" value="result += current" style="whiteSpace=wrap;html=1;" vertex="1" parent="1">
          <mxGeometry x="150" y="710" width="160" height="60" as="geometry" />
        </mxCell>
        <mxCell id="6O5snESh_WPviviqWZDd-24" value="" style="edgeStyle=orthogonalEdgeStyle;rounded=0;orthogonalLoop=1;jettySize=auto;html=1;" edge="1" parent="1" source="6O5snESh_WPviviqWZDd-21" target="6O5snESh_WPviviqWZDd-22">
          <mxGeometry relative="1" as="geometry" />
        </mxCell>
        <mxCell id="6O5snESh_WPviviqWZDd-21" value="Вывод result" style="shape=parallelogram;perimeter=parallelogramPerimeter;whiteSpace=wrap;html=1;fixedSize=1;" vertex="1" parent="1">
          <mxGeometry x="460" y="430" width="120" height="60" as="geometry" />
        </mxCell>
        <mxCell id="6O5snESh_WPviviqWZDd-22" value="КОНЕЦ" style="ellipse;whiteSpace=wrap;html=1;" vertex="1" parent="1">
          <mxGeometry x="460" y="530" width="120" height="60" as="geometry" />
        </mxCell>
      </root>
    </mxGraphModel>
  </diagram>
</mxfile>
